<?xml version="1.0" encoding="UTF-8" standalone="no"?>
<!-- Created with Inkscape (http://www.inkscape.org/) -->

<svg
   width="23.148991mm"
   height="23.148975mm"
   viewBox="0 0 23.148991 23.148975"
   version="1.1"
   id="svg1"
   xmlns="http://www.w3.org/2000/svg"
   xmlns:svg="http://www.w3.org/2000/svg">
  <defs
     id="defs1" />
  <g
     id="layer1"
     transform="translate(-167.09452,-79.954215)">
    <path
       id="rect1-0-19"
       style="fill:#444444;stroke:none;stroke-width:0.2;stroke-miterlimit:17"
       d="m 181.1433,79.954214 c -1.45367,0 -2.9069,0.597906 -3.067,1.522388 -0.1601,0.924482 0.97327,2.175328 1.27434,2.800862 0.30107,0.625534 -0.23045,0.625802 -1.07797,0.625802 h -5.22908 a 1,1 135 0 0 -1,1 v 5.229077 c 0,0.847528 -2.6e-4,1.379046 -0.6258,1.07797 -0.62554,-0.301075 -1.87638,-1.434437 -2.80086,-1.27434 -0.92448,0.160096 -1.52239,1.613337 -1.52239,3.066994 0,1.45366 0.59791,2.90742 1.52239,3.06751 0.92448,0.1601 2.17533,-0.97326 2.80086,-1.27434 0.62554,-0.30107 0.6258,0.22994 0.6258,1.07746 v 5.229593 a 1,1 45 0 0 1,1 h 5.27145 c 0.82284,-1.7e-4 1.33164,-0.0107 1.0356,-0.6258 -0.30107,-0.62553 -1.43444,-1.87638 -1.27434,-2.800863 0.1601,-0.92448 1.61333,-1.52239 3.067,-1.52239 1.45366,0 2.90741,0.5979 3.06751,1.52239 0.1601,0.924483 -0.97327,2.175323 -1.27434,2.800863 -0.29605,0.61509 0.21276,0.62563 1.03559,0.6258 h 5.27146 a 1,1 135 0 0 1,-1 v -5.229593 c 0,-0.84752 -2.7e-4,-1.37853 -0.62581,-1.07746 -0.62553,0.30108 -1.87638,1.43444 -2.80086,1.27434 -0.92448,-0.16009 -1.52239,-1.61385 -1.52239,-3.06751 0,-1.453655 0.59791,-2.906898 1.52239,-3.066994 0.92448,-0.160097 2.17533,0.973265 2.80086,1.27434 0.62554,0.301076 0.62581,-0.230442 0.62581,-1.07797 v -5.229077 a 1,1 45 0 0 -1,-1 h -5.2296 c -0.84753,0 -1.37853,-2.65e-4 -1.07745,-0.625802 0.30107,-0.625537 1.43444,-1.87638 1.27434,-2.800862 -0.1601,-0.924483 -1.61385,-1.522388 -3.06751,-1.522388 z" />
  </g>
</svg>
