<svg
   width="10mm"
   height="10mm"
   viewBox="0 0 10 10"
   xmlns="http://www.w3.org/2000/svg">
    <path
     fill="#444"
     d="M 3.874109,5.0746278 C 3.3172684,4.8965435 2.7875236,4.7655503 2.3272283,4.7655503 c -0.7803921,0 -1.2977837,0.3988931 -1.76786378,0.7614953 -0.0743755,0.057993 -0.0885739,0.1648568 -0.0321025,0.2403938 0.22221551,0.2961109 0.39311535,0.7861381 0.58381318,1.289316 0.1906979,0.5031781 0.4029946,1.0233343 0.7726938,1.3915954 0.7393771,0.7365017 1.9535843,0.7159549 3.1161585,0.7159549 1.1625749,0 2.3767818,0.020548 3.1161583,-0.7159549 C 8.4857855,8.0800897 8.6988285,7.5599335 8.8895262,7.0567554 9.0802241,6.5535775 9.2511239,6.0635503 9.4733393,5.7674394 9.5298108,5.6919025 9.5148655,5.5850388 9.4404905,5.5270456 8.9704108,5.1644349 8.4515525,4.7655503 7.6711337,4.7655503 c -0.2153639,0 -0.446374,0.029434 -0.6875854,0.078389 v 0.3792546 c 0.2552388,-0.067861 0.490629,-0.1127306 0.6875854,-0.1127306 0.532474,0 0.8783713,0.2833022 1.2490016,0.5532039 C 8.5499661,5.9332213 8.20475,6.2147336 7.6733734,6.215378 c -0.032848,0 -0.067216,-0.00131 -0.1015328,-0.00299 C 7.397279,6.2011478 7.1974689,6.1601865 6.9835483,6.1033929 v 0.9473897 c 5.499e-4,0.04044 -0.026065,0.076232 -0.06495,0.087349 C 6.6294518,7.221568 6.3258337,7.3084118 5.8525037,7.2844575 5.3789802,7.2605392 4.7442531,7.1292357 4.2891985,7.1067753 3.8341785,7.0843214 3.5473364,7.1669908 3.2447554,7.2508621 L 3.1999617,7.0761661 C 3.5024805,6.992312 3.8172562,6.9053987 4.2974107,6.9290929 4.7776014,6.9527945 5.4125047,7.0811494 5.8607158,7.103789 6.279935,7.1250042 6.5365099,7.0518639 6.805866,6.9746337 V 6.05412 c -2.35e-4,-6.92e-5 -5.115e-4,6.9e-5 -7.466e-4,0 V 5.2724674 c 2.366e-4,-7e-5 5.1e-4,6.99e-5 7.466e-4,0 V 4.8827609 c -2.407e-4,5.69e-5 -5.061e-4,-5.69e-5 -7.466e-4,0 V 0.83563721 H 4.9999276 V 1.4246763 H 3.874109 V 2.0510436 H 4.9999276 V 2.6408292 H 3.874109 V 3.2664498 H 4.9999276 V 3.8562354 H 3.874109 v 0.6256207 h 1.5916745 v 0.5897855 z m 0,0.621888 H 4.9999276 V 6.2870479 H 3.874109 Z"
     />
</svg>
